<?xml version="1.0" encoding="utf-8"?>
<!-- Generator: Adobe Illustrator 19.2.1, SVG Export Plug-In . SVG Version: 6.00 Build 0)  -->
<svg version="1.1" xmlns="http://www.w3.org/2000/svg" xmlns:xlink="http://www.w3.org/1999/xlink" x="0px" y="0px"
	 viewBox="0 0 396.8 396.8" style="enable-background:new 0 0 396.8 396.8;" xml:space="preserve">
<g id="Layer_1">
	<g>
		<g>
			<g>
				<path fill="#FFF" d="M8.9,2.6C5.4,3.1,2.8,5.7,2.3,9.1c-3.8,30.7-0.5,62.3,9.6,91.6C22,130,38.8,157,60.7,178.8l49.9,49.9l9.3,72
					c0.2,1.6,1,3.2,2.1,4.3l69.4,69.4c2,2,4.9,2.7,7.5,1.9c2.7-0.8,4.6-3.1,5.1-5.8l9.7-52.5l10.3-10.3l11.9,22
					c1.1,2.1,3.2,3.5,5.5,3.8c2.3,0.3,4.7-0.4,6.4-2.1l83.3-83.3c1.4-1.4,2.2-3.3,2.2-5.3c0-0.4,0-0.7-0.1-1.1
					c-0.3-2.3-1.8-4.4-3.8-5.5l-22-11.9l10.3-10.3l52.5-9.7c2.7-0.5,5-2.5,5.8-5.1c0.2-0.7,0.3-1.5,0.3-2.2c0-2-0.8-3.9-2.2-5.3
					l-69.4-69.4c-1.2-1.2-2.7-1.9-4.3-2.1l-72-9.3L178.5,61c-21.9-21.9-48.9-38.7-78.1-48.8C71.2,2.2,39.5-1.2,8.9,2.6z
					 M198.8,316.9l-6.8,36.9l-57.6-57.6l-6.5-50.2L198.8,316.9z M313.4,244.7l-69.1,69.1l-9.2-17l61.3-61.3L313.4,244.7z M296,134.7
					l57.6,57.6l-36.9,6.8l-70.9-70.9L296,134.7z M167.9,71.6l135.6,135.6l-96.7,96.7L71.3,168.2c-19.7-19.7-35-43.9-44.4-70.1
					c17.5-3.4,33.6-11.9,46.3-24.6c12.7-12.7,21.2-28.9,24.6-46.3C124,36.6,148.2,51.9,167.9,71.6z M83.4,22.7
					c-2.6,15.2-9.8,29.3-20.8,40.3S37.5,81.1,22.4,83.7c-5.8-21.7-7.8-44.5-5.8-66.9C38.9,14.8,61.7,16.8,83.4,22.7z"/>
				<path fill="#FFF" d="M111,175.5c17.7,17.7,46.5,17.7,64.2,0c8.9-8.9,13.3-20.5,13.3-32.1c0-11.6-4.4-23.3-13.3-32.1v0
					c-17.7-17.7-46.5-17.7-64.2,0C93.3,129,93.3,157.8,111,175.5z M164.7,121.9c11.9,11.9,11.9,31.2,0,43c-11.9,11.9-31.2,11.9-43,0
					c-5.9-5.9-8.9-13.7-8.9-21.5c0-7.8,3-15.6,8.9-21.5C133.5,110,152.8,110,164.7,121.9z"/>
				<path fill="#FFF" d="M299.4,298.3c-2.9,2.9-2.9,7.7,0,10.6l64.2,64.2c2.9,2.9,7.7,2.9,10.6,0c1.5-1.5,2.2-3.4,2.2-5.3s-0.7-3.8-2.2-5.3
					l-64.2-64.2C307,295.3,302.3,295.3,299.4,298.3z"/>
				<path fill="#FFF" d="M319.8,288.4l28.9,28.9c2.9,2.9,7.7,2.9,10.6,0c1.5-1.5,2.2-3.4,2.2-5.3c0-1.9-0.7-3.8-2.2-5.3l-28.9-28.9
					c-2.9-2.9-7.7-2.9-10.6,0C316.9,280.7,316.9,285.4,319.8,288.4z"/>
				<path fill="#FFF" d="M362,327.4c0,3.1,2,6,5,7c3,1.1,6.4,0.1,8.4-2.4c2-2.5,2.1-6.3,0.3-8.9c-2-2.8-5.8-4-9-2.6
					C363.8,321.6,362,324.5,362,327.4z"/>
				<path fill="#FFF" d="M366.6,320.5C367.1,320.3,366.2,320.7,366.6,320.5L366.6,320.5z"/>
				<path fill="#FFF" d="M380.1,348.6l4,4c2.9,2.9,7.7,2.9,10.6,0c1.5-1.5,2.2-3.4,2.2-5.3c0-1.9-0.7-3.8-2.2-5.3l-4-4c-2.9-2.9-7.7-2.9-10.6,0
					S377.1,345.7,380.1,348.6z"/>
				<path fill="#FFF" d="M314.2,354c-2.9,2.9-2.9,7.7,0,10.6l28.9,28.9c2.9,2.9,7.7,2.9,10.6,0c1.5-1.5,2.2-3.4,2.2-5.3c0-1.9-0.7-3.8-2.2-5.3
					L324.8,354C321.8,351.1,317.1,351.1,314.2,354z"/>
				<path fill="#FFF" d="M311.3,342.1c-0.8-3-3.4-5.3-6.5-5.6c-3-0.3-6,1.4-7.4,4.1c-1.5,2.9-0.9,6.5,1.5,8.8c2.5,2.4,6.4,2.7,9.3,0.9
					c-0.1,0.1-0.2,0.1,0,0c0.2-0.1,0.1-0.1,0,0C310.8,348.3,312.1,345.1,311.3,342.1z"/>
				<path fill="#FFF" d="M293.5,322.7l-4-4c-2.9-2.9-7.7-2.9-10.6,0c-2.9,2.9-2.9,7.7,0,10.6l4,4c2.9,2.9,7.7,2.9,10.6,0
					c1.5-1.5,2.2-3.4,2.2-5.3C295.7,326.1,294.9,324.2,293.5,322.7z"/>
			</g>
		</g>
	</g>
</g>
<g id="Calque_2">
	<rect fill="#FFF" x="209.1" y="176" transform="matrix(0.8791 -0.4767 0.4767 0.8791 -74.1737 126.959)" width="8" height="67.3"/>
	<polygon fill="#FFF" points="253,222 252.8,166.3 204.8,166.5 204.9,175.2 246.6,175 246.8,222.1 	"/>
	<polygon fill="#FFF" points="169.3,201.6 169.5,257.3 217.5,257 217.4,248.4 175.7,248.6 175.5,201.5 	"/>
</g>
</svg>
