<?xml version="1.0" encoding="utf-8"?>
<!-- Generator: Adobe Illustrator 19.2.1, SVG Export Plug-In . SVG Version: 6.00 Build 0)  -->
<svg version="1.1" id="Calque_1" xmlns="http://www.w3.org/2000/svg" xmlns:xlink="http://www.w3.org/1999/xlink" x="0px" y="0px"
	 viewBox="0 0 800 600" style="enable-background:new 0 0 800 600;" xml:space="preserve">
<style type="text/css">
	.st0{fill:#B65534;stroke:#FCFCFC;stroke-miterlimit:10;}
	.st1{fill:#B65534;stroke:#FFFFFF;stroke-miterlimit:10;}
	.st2{fill:#FFFFFF;stroke:#FFFFFF;stroke-miterlimit:10;}
	.st3{fill:none;stroke:#FCFCFC;stroke-miterlimit:10;}
	.st4{fill:none;stroke:#FFFFFF;stroke-miterlimit:10;}
</style>
<path class="st0" d="M575.9,140.5H212.4c-100.2,0-177.2,70.7-173.7,159s86.7,159,186.9,159h363.5c100.2,0,178.3-70.7,174.8-159
	S676.1,140.5,575.9,140.5z"/>
<path class="st1" d="M567.1,153.5H222.1c-95,0-168.4,65.8-164.9,147c3.4,81.2,82.1,147,177.2,147h344.9c95,0,169.4-65.8,166-147
	C741.9,219.3,662.1,153.5,567.1,153.5z"/>
<path class="st1" d="M555.5,167.5H235.3c-88.2,0-156.3,59.2-153.2,133c3.1,73.8,76.2,133,164.5,133h320.3
	c88.2,0,157.3-59.2,154.1-133S643.8,167.5,555.5,167.5z"/>
<path class="st1" d="M542.8,182.5H248.4c-81.1,0-143.6,52.9-140.8,119s70,119,151.1,119h294.4c81.1,0,144.5-52.9,141.7-119
	S623.9,182.5,542.8,182.5z"/>
<path class="st2" d="M529.4,199.5H259.1c-74.5,0-132.1,45.2-129.5,102c2.6,56.8,64,102,138.5,102h270.2c74.5,0,132.9-45.2,130.3-102
	C666.1,244.7,603.8,199.5,529.4,199.5z"/>
<line class="st3" x1="555.7" y1="399.9" x2="556.7" y2="458.5"/>
<line class="st3" x1="536.1" y1="400.4" x2="537.1" y2="459"/>
<line class="st4" x1="546.2" y1="405" x2="546.3" y2="413.5"/>
<line class="st4" x1="543.8" y1="422.2" x2="544" y2="430.7"/>
<line class="st4" x1="548" y1="422.2" x2="548.1" y2="430.7"/>
<line class="st4" x1="542.8" y1="435.9" x2="542.9" y2="444.4"/>
<line class="st4" x1="543" y1="448.5" x2="543.2" y2="457"/>
<line class="st4" x1="545.3" y1="448.7" x2="547.8" y2="456.9"/>
<line class="st4" x1="550.2" y1="448.8" x2="547.8" y2="456.9"/>
<line class="st4" x1="546.2" y1="435.9" x2="546.3" y2="444.4"/>
<line class="st4" x1="549.6" y1="435.9" x2="549.7" y2="444.4"/>
<line class="st4" x1="532.1" y1="377" x2="532.2" y2="385.5"/>
<line class="st3" x1="602" y1="214.2" x2="650" y2="170"/>
<path class="st3" d="M287.6,200c3.6-31.8-2.9-58.5-14.5-59.8"/>
<line class="st3" x1="625.9" y1="378.8" x2="646.6" y2="392"/>
<line class="st3" x1="664.3" y1="377.1" x2="686.3" y2="387.3"/>
<line class="st3" x1="705.7" y1="362.3" x2="728.3" y2="369.4"/>
<line class="st3" x1="738.2" y1="346.8" x2="756.9" y2="350.8"/>
</svg>
